<svg width="20" height="20" viewBox="0 0 20 20" fill="none" xmlns="http://www.w3.org/2000/svg">
<path d="M19.9851 4.30866C19.9851 4.2858 20.0008 4.26356 19.9998 4.24097L13.8965 10.1218L19.9925 15.8148C19.9961 15.7742 19.9851 15.7332 19.9851 15.6916V4.30866Z" fill="black"/>
<path d="M12.9648 11.0267L10.4732 13.4239C10.3472 13.5452 10.1843 13.606 10.0214 13.606C9.86187 13.606 9.70234 13.5478 9.57713 13.4311L7.09236 11.1157L0.956543 17.0299C1.10574 17.0836 1.26588 17.1252 1.43358 17.1252H18.6093C18.8584 17.1252 19.0919 17.0493 19.295 16.9362L12.9648 11.0267Z" fill="black"/>
<path d="M10.0145 12.057L19.329 3.08438C19.1181 2.95899 18.8726 2.87488 18.6095 2.87488H1.43379C1.09117 2.87488 0.77723 3.00791 0.532715 3.2108L10.0145 12.057Z" fill="black"/>
<path d="M0 4.5271V15.6914C0 15.8195 0.0294565 15.9431 0.0614329 16.0612L6.12113 10.2258L0 4.5271Z" fill="black"/>
</svg>
