<svg width="20" height="21" viewBox="0 0 20 21" fill="none" xmlns="http://www.w3.org/2000/svg">
<path d="M17.3048 0H2.69504C1.20664 0 0 1.22588 0 2.73812V17.5815C0 19.0937 1.20659 20.3196 2.69504 20.3196H9.9005L9.91278 13.0585H8.05602C7.81472 13.0585 7.61887 12.8602 7.61794 12.6151L7.60904 10.2745C7.60811 10.028 7.80454 9.82771 8.04716 9.82771H9.90055V7.56613C9.90055 4.94159 11.4782 3.51251 13.7827 3.51251H15.6736C15.9156 3.51251 16.1117 3.71178 16.1117 3.95764V5.93121C16.1117 6.17696 15.9157 6.37619 15.6739 6.37634L14.5134 6.37688C13.2602 6.37688 13.0175 6.98192 13.0175 7.86984V9.82775H15.7713C16.0337 9.82775 16.2372 10.0605 16.2063 10.3253L15.9333 12.6658C15.9071 12.8898 15.7202 13.0586 15.4982 13.0586H13.0298L13.0175 20.3197H17.3049C18.7933 20.3197 19.9999 19.0938 19.9999 17.5816V2.73812C19.9998 1.22588 18.7932 0 17.3048 0Z" fill="#475993"/>
</svg>
