<svg width="20" height="21" viewBox="0 0 20 21" fill="none" xmlns="http://www.w3.org/2000/svg">
<path d="M13.75 0H6.25C2.79875 0 0 2.84349 0 6.34991V13.9698C0 17.4762 2.79875 20.3197 6.25 20.3197H13.75C17.2013 20.3197 20 17.4762 20 13.9698V6.34991C20 2.84349 17.2013 0 13.75 0ZM18.125 13.9698C18.125 16.4209 16.1625 18.4147 13.75 18.4147H6.25C3.8375 18.4147 1.875 16.4209 1.875 13.9698V6.34991C1.875 3.89884 3.8375 1.90497 6.25 1.90497H13.75C16.1625 1.90497 18.125 3.89884 18.125 6.34991V13.9698Z" fill="url(#paint0_linear)"/>
<path d="M10 5.07996C7.23875 5.07996 5 7.35449 5 10.1599C5 12.9653 7.23875 15.2398 10 15.2398C12.7613 15.2398 15 12.9653 15 10.1599C15 7.35449 12.7613 5.07996 10 5.07996ZM10 13.3348C8.2775 13.3348 6.875 11.9099 6.875 10.1599C6.875 8.40857 8.2775 6.98493 10 6.98493C11.7225 6.98493 13.125 8.40857 13.125 10.1599C13.125 11.9099 11.7225 13.3348 10 13.3348Z" fill="url(#paint1_linear)"/>
<path d="M15.3752 5.37648C15.7431 5.37648 16.0414 5.07329 16.0414 4.69929C16.0414 4.32528 15.7431 4.02209 15.3752 4.02209C15.0073 4.02209 14.709 4.32528 14.709 4.69929C14.709 5.07329 15.0073 5.37648 15.3752 5.37648Z" fill="url(#paint2_linear)"/>
<defs>
<linearGradient id="paint0_linear" x1="1.83081" y1="18.4597" x2="18.4283" y2="2.12317" gradientUnits="userSpaceOnUse">
<stop stop-color="#FFC107"/>
<stop offset="0.507" stop-color="#F44336"/>
<stop offset="0.99" stop-color="#9C27B0"/>
</linearGradient>
<linearGradient id="paint1_linear" x1="6.46456" y1="13.7518" x2="13.6476" y2="6.68184" gradientUnits="userSpaceOnUse">
<stop stop-color="#FFC107"/>
<stop offset="0.507" stop-color="#F44336"/>
<stop offset="0.99" stop-color="#9C27B0"/>
</linearGradient>
<linearGradient id="paint2_linear" x1="14.9042" y1="5.17821" x2="15.8616" y2="4.23616" gradientUnits="userSpaceOnUse">
<stop stop-color="#FFC107"/>
<stop offset="0.507" stop-color="#F44336"/>
<stop offset="0.99" stop-color="#9C27B0"/>
</linearGradient>
</defs>
</svg>
