<svg width="50" height="50" viewBox="0 0 50 50" fill="none" xmlns="http://www.w3.org/2000/svg">
<path d="M44.5653 14.9305C43.0246 11.9425 40.7777 9.30388 38.068 7.29998C37.6703 7.006 37.1098 7.09001 36.8156 7.48757C36.5215 7.88512 36.6057 8.44579 37.0032 8.73993C39.4935 10.5815 41.5579 13.0059 42.9737 15.7513C44.4571 18.6281 45.2092 21.7397 45.2092 25.0001C45.2092 36.1435 36.1433 45.2094 25 45.2094C13.8567 45.2094 4.79079 36.1435 4.79079 25C4.79079 13.8565 13.8567 4.79079 25 4.79079C25.4944 4.79079 25.8954 4.3898 25.8954 3.89539C25.8954 3.40099 25.4944 3 25 3C12.8692 3 3 12.8692 3 25C3 37.1308 12.8692 47 25 47C37.1308 47 47 37.1308 47 25C47 21.5014 46.1582 18.0195 44.5653 14.9305Z" fill="#FCFCFC"/>
<path d="M18.6031 13.3918C18.2849 13.5727 18.0884 13.9105 18.0884 14.2763V36.6058C18.0884 37.1678 18.544 37.6233 19.1059 37.6233C19.6677 37.6233 20.1234 37.1678 20.1234 36.6058V16.0662L35.1878 25.0342L24.1101 32.1714C23.6378 32.4758 23.5014 33.1055 23.8058 33.5778C24.1104 34.0502 24.7399 34.1866 25.2123 33.882L37.6707 25.8552C37.9668 25.6644 38.1431 25.334 38.1369 24.9818C38.1306 24.6296 37.9427 24.3057 37.64 24.1254L19.6263 13.4019C19.3116 13.2149 18.9212 13.2108 18.6031 13.3918Z" fill="#FCFCFC"/>
</svg>
