<svg width="20" height="18" viewBox="0 0 20 18" fill="none" xmlns="http://www.w3.org/2000/svg">
<path d="M20 2.85929C19.2563 3.19075 18.4637 3.41046 17.6375 3.51714C18.4875 3.00152 19.1363 2.19128 19.4412 1.21466C18.6488 1.69471 17.7738 2.0338 16.8412 2.22303C16.0887 1.40897 15.0162 0.904785 13.8462 0.904785C11.5763 0.904785 9.74875 2.77674 9.74875 5.07159C9.74875 5.40179 9.77625 5.71928 9.84375 6.02154C6.435 5.85263 3.41875 4.19277 1.3925 1.66423C1.03875 2.28779 0.83125 3.00152 0.83125 3.76986C0.83125 5.21256 1.5625 6.49143 2.6525 7.23183C1.99375 7.21913 1.3475 7.02482 0.8 6.71876C0.8 6.73146 0.8 6.74797 0.8 6.76448C0.8 8.78883 2.22125 10.4703 4.085 10.8576C3.75125 10.9503 3.3875 10.9948 3.01 10.9948C2.7475 10.9948 2.4825 10.9795 2.23375 10.9237C2.765 12.5734 4.2725 13.7862 6.065 13.8256C4.67 14.9343 2.89875 15.6023 0.98125 15.6023C0.645 15.6023 0.3225 15.587 0 15.5451C1.81625 16.7351 3.96875 17.4145 6.29 17.4145C13.835 17.4145 17.96 11.0646 17.96 5.56053C17.96 5.37639 17.9538 5.19859 17.945 5.02206C18.7588 4.43533 19.4425 3.70255 20 2.85929Z" fill="#03A9F4"/>
</svg>
