<svg width="22" height="16" viewBox="0 0 22 16" fill="none" xmlns="http://www.w3.org/2000/svg">
<path d="M21.5467 2.41027C21.2931 1.46781 20.5501 0.724927 19.6078 0.471144C17.8862 0 10.9998 0 10.9998 0C10.9998 0 4.11357 0 2.39197 0.453184C1.46781 0.706799 0.706632 1.46798 0.453016 2.41027C0 4.1317 0 7.70178 0 7.70178C0 7.70178 0 11.2898 0.453016 12.9933C0.706799 13.9356 1.44969 14.6786 2.39214 14.9324C4.1317 15.4036 11 15.4036 11 15.4036C11 15.4036 17.8862 15.4036 19.6078 14.9504C20.5502 14.6968 21.2931 13.9537 21.5469 13.0114C21.9999 11.2898 21.9999 7.71991 21.9999 7.71991C21.9999 7.71991 22.018 4.1317 21.5467 2.41027Z" fill="#FF0000"/>
<path d="M8.80713 10.9999L14.5336 7.70175L8.80713 4.40356V10.9999Z" fill="white"/>
</svg>
